<?xml version="1.0" encoding="UTF-8"?>
<svg xmlns="http://www.w3.org/2000/svg" xmlns:xlink="http://www.w3.org/1999/xlink" viewBox="0 0 1213.22 1523.89">
  <defs>
    <style>
      .cls-1 {
        fill: url(#linear-gradient-2);
      }

      .cls-1, .cls-2 {
        fill-rule: evenodd;
      }

      .cls-1, .cls-3 {
        mix-blend-mode: multiply;
      }

      .cls-2, .cls-4 {
        fill: #216394;
      }

      .cls-5 {
        isolation: isolate;
      }

      .cls-3 {
        fill: url(#linear-gradient);
      }
    </style>
    <linearGradient id="linear-gradient" x1="970" y1="168.97" x2="695.59" y2="754.79" gradientUnits="userSpaceOnUse">
      <stop offset=".12" stop-color="#fff"/>
      <stop offset="1" stop-color="#000"/>
    </linearGradient>
    <linearGradient id="linear-gradient-2" x1="522.53" y1="839.46" x2="680.12" y2="1568.89" xlink:href="#linear-gradient"/>
  </defs>
  <g class="cls-5">
    <g id="Capa_2" data-name="Capa 2">
      <g id="Layer_1" data-name="Layer 1">
        <g>
          <path class="cls-4" d="M1196.8,1147.49c0,45.72-16.09,91.82-48.22,138.29-32.16,46.48-75.63,87.23-130.45,122.29-51.06,33.53-119.13,60.56-204.2,81.14-85.07,20.58-172.98,31.99-263.74,34.28-90.75,2.29-178.2-5.34-262.33-22.85-84.13-17.53-151.73-48.39-202.76-92.57-41.6-36.57-68.07-78.11-79.41-124.59-57.79-236.79,337.8-400.26,542.23-485.31-207.93,90.79-566.01,249.61-513.88,480.75,9.47,41.89,33.09,79.6,70.91,113.13,37.81,33.53,86.5,59.44,146.04,77.73,59.56,18.29,124.32,27.43,194.26,27.43s134.72-8.77,199.95-26.3c65.22-17.53,124.29-41.91,177.23-73.15,52.94-31.24,95.48-68.19,127.63-110.86,32.13-42.67,48.19-89.15,48.19-139.42,0-47.25-14.16-89.15-42.54-125.72-126.77-163.51-318.55-226.13-510.47-333.74-43.47-24.38-83.19-51.81-119.1-82.29-90.75-73.13-136.13-150.1-136.13-230.86,0-47.23,15.6-94.09,46.81-140.58,31.19-46.48,74.19-87.23,129.01-122.27,54.84-35.06,118.16-62.49,190.01-82.29C627.71,9.9,699.56,0,771.41,0s139.42,10.28,202.76,30.86c63.35,20.58,115.79,48.39,157.39,83.43,39.72,35.06,65.25,75.82,76.57,122.29,48.32,197.99-257.74,364.8-462.59,453.07,188.08-86.37,486.94-241.84,435.65-448.48-10.38-41.91-34.5-79.62-72.32-113.15-41.57-35.06-86.01-59.82-133.29-74.28-47.25-14.48-94.98-20.58-143.2-18.29-48.22,2.27-96.41,11.79-144.63,28.57-48.22,16.75-93.13,38.87-134.7,66.3-51.06,33.51-91.22,71.62-120.54,114.29-29.31,42.67-43.97,85.34-43.97,127.99,0,47.25,13.72,89.15,41.13,125.72,27.41,36.57,56.25,67.05,86.5,91.44,26.47,21.34,55.78,41.91,87.91,61.71,201.2,124.02,592.72,253.61,592.72,496.03h0Z"/>
          <path class="cls-3" d="M1196.8,1147.49c0,45.72-16.09,91.82-48.22,138.29-32.16,46.48-75.63,87.23-130.45,122.29-51.06,33.53-119.13,60.56-204.2,81.14-85.07,20.58-172.98,31.99-263.74,34.28-90.75,2.29-178.2-5.34-262.33-22.85-84.13-17.53-151.73-48.39-202.76-92.57-41.6-36.57-68.07-78.11-79.41-124.59-57.79-236.79,337.8-400.26,542.23-485.31-207.93,90.79-566.01,249.61-513.88,480.75,9.47,41.89,33.09,79.6,70.91,113.13,37.81,33.53,86.5,59.44,146.04,77.73,59.56,18.29,124.32,27.43,194.26,27.43s134.72-8.77,199.95-26.3c65.22-17.53,124.29-41.91,177.23-73.15,52.94-31.24,95.48-68.19,127.63-110.86,32.13-42.67,48.19-89.15,48.19-139.42,0-47.25-14.16-89.15-42.54-125.72-126.77-163.51-318.55-226.13-510.47-333.74-43.47-24.38-83.19-51.81-119.1-82.29-90.75-73.13-136.13-150.1-136.13-230.86,0-47.23,15.6-94.09,46.81-140.58,31.19-46.48,74.19-87.23,129.01-122.27,54.84-35.06,118.16-62.49,190.01-82.29C627.71,9.9,699.56,0,771.41,0s139.42,10.28,202.76,30.86c63.35,20.58,115.79,48.39,157.39,83.43,39.72,35.06,65.25,75.82,76.57,122.29,48.32,197.99-257.74,364.8-462.59,453.07,188.08-86.37,486.94-241.84,435.65-448.48-10.38-41.91-34.5-79.62-72.32-113.15-41.57-35.06-86.01-59.82-133.29-74.28-47.25-14.48-94.98-20.58-143.2-18.29-48.22,2.27-96.41,11.79-144.63,28.57-48.22,16.75-93.13,38.87-134.7,66.3-51.06,33.51-91.22,71.62-120.54,114.29-29.31,42.67-43.97,85.34-43.97,127.99,0,47.25,13.72,89.15,41.13,125.72,27.41,36.57,56.25,67.05,86.5,91.44,26.47,21.34,55.78,41.91,87.91,61.71,201.2,124.02,592.72,253.61,592.72,496.03Z"/>
          <path class="cls-2" d="M590.78,643.13c-34.24-17.36-68.9-35.33-103.56-54.76-43.47-24.38-83.19-51.81-119.1-82.29-90.75-73.15-136.13-150.1-136.13-230.86,0-13.03,1.17-26.02,3.55-38.99-30.33,45.84-45.51,92.07-45.51,138.65,0,80.76,45.38,157.73,136.13,230.86,35.91,30.48,75.63,57.91,119.1,82.29,191.91,107.6,383.7,170.24,510.47,333.74,28.37,36.58,42.54,78.47,42.54,125.72,0,50.28-16.06,96.76-48.19,139.42-32.16,42.67-74.69,79.62-127.63,110.86-52.94,31.24-112.01,55.62-177.23,73.15-65.22,17.53-131.88,26.3-199.95,26.3s-134.7-9.14-194.26-27.43c-59.54-18.29-108.23-44.2-146.04-77.73-37.81-33.53-61.44-71.24-70.91-113.13-52.13-231.14,305.96-389.96,513.88-480.75C343.5,883.22-52.09,1046.69,5.7,1283.48c11.34,46.48,37.81,88.01,79.41,124.59,51.04,44.18,118.63,75.04,202.76,92.57,84.13,17.51,171.57,25.14,262.33,22.85,90.75-2.29,178.67-13.7,263.74-34.28,85.07-20.58,153.14-47.61,204.2-81.14,54.82-35.06,98.29-75.82,130.45-122.29,32.13-46.48,48.22-92.57,48.22-138.29,0-242.42-391.52-372.01-592.72-496.03-4.49-2.75-8.92-5.53-13.3-8.32h0Z"/>
          <path class="cls-1" d="M590.78,643.13c-34.24-17.36-68.9-35.33-103.56-54.76-43.47-24.38-83.19-51.81-119.1-82.29-90.75-73.15-136.13-150.1-136.13-230.86,0-13.03,1.17-26.02,3.55-38.99-30.33,45.84-45.51,92.07-45.51,138.65,0,80.76,45.38,157.73,136.13,230.86,35.91,30.48,75.63,57.91,119.1,82.29,191.91,107.6,383.7,170.24,510.47,333.74,28.37,36.58,42.54,78.47,42.54,125.72,0,50.28-16.06,96.76-48.19,139.42-32.16,42.67-74.69,79.62-127.63,110.86-52.94,31.24-112.01,55.62-177.23,73.15-65.22,17.53-131.88,26.3-199.95,26.3s-134.7-9.14-194.26-27.43c-59.54-18.29-108.23-44.2-146.04-77.73-37.81-33.53-61.44-71.24-70.91-113.13-52.13-231.14,305.96-389.96,513.88-480.75C343.5,883.22-52.09,1046.69,5.7,1283.48c11.34,46.48,37.81,88.01,79.41,124.59,51.04,44.18,118.63,75.04,202.76,92.57,84.13,17.51,171.57,25.14,262.33,22.85,90.75-2.29,178.67-13.7,263.74-34.28,85.07-20.58,153.14-47.61,204.2-81.14,54.82-35.06,98.29-75.82,130.45-122.29,32.13-46.48,48.22-92.57,48.22-138.29,0-242.42-391.52-372.01-592.72-496.03-4.49-2.75-8.92-5.53-13.3-8.32h0Z"/>
        </g>
      </g>
    </g>
  </g>
</svg>